Coordinates
version=1
nRows=8
nColumns=40
inDegrees=yes

Units are S.I. units (second, meters, Newtons, ...)
If the header above contains a line with 'inDegrees', this indicates whether rotational values are in degrees (yes) or radians (no).

endheader
time	pelvis_tilt	pelvis_list	pelvis_rotation	pelvis_tx	pelvis_ty	pelvis_tz	hip_flexion_r	hip_adduction_r	hip_rotation_r	knee_angle_r	knee_angle_r_beta	ankle_angle_r	subtalar_angle_r	mtp_angle_r	hip_flexion_l	hip_adduction_l	hip_rotation_l	knee_angle_l	knee_angle_l_beta	ankle_angle_l	subtalar_angle_l	mtp_angle_l	lumbar_extension	lumbar_bending	lumbar_rotation	arm_flex_r	arm_add_r	arm_rot_r	elbow_flex_r	pro_sup_r	wrist_flex_r	wrist_dev_r	arm_flex_l	arm_add_l	arm_rot_l	elbow_flex_l	pro_sup_l	wrist_flex_l	wrist_dev_l
      8.55000000000000071054	      9.73368698237336893442	     -1.62216420927190263512	   -172.43427000647892555207	      0.26151513923695351993	      0.91089059936793437267	     -0.61815646049569783482	     28.38922808149336418637	    -13.78470851875368730077	    -16.10829168850220227682	     19.71149189492386710754	      0.34403043404659761073	     -1.77543242040226756373	      0.00000000000000000000	      0.00000000000000000000	     29.00439810062789192102	     -4.02359022909278696289	     -4.77268522370110659381	     16.10719886857653548873	      0.28112365353016594005	     -4.74126753297695824330	      0.00000000000000000000	      0.00000000000000000000	    -27.25491013664415262951	      1.96801010812953824924	     -8.15526348616574559003	     27.96794114977221212825	     -2.82515435060657482680	     31.91368548248759040575	      4.82055183326283831491	     16.99891711451815723422	      0.00000000000000000000	      0.00000000000000000000	     34.21427288607527827935	    -10.80828955707470129255	     81.66570341628673190826	      7.56437043015764931653	     77.86319599917892730900	      0.00000000000000000000	      0.00000000000000000000
      8.55499999999999971578	      9.70229855105023908379	     -1.59993393380400572568	   -172.45466005266357001346	      0.26044528588763932175	      0.91108256108139151763	     -0.61809156101555384755	     28.21048573686947591455	    -13.73819438311581819789	    -16.18358163460604970396	     19.58875856413901317410	      0.34188833332246260088	     -1.70334957126593256049	      0.00000000000000000000	      0.00000000000000000000	     28.87770428046710691206	     -4.05605879296463900374	     -4.67924102315863876811	     16.08265597682350289688	      0.28069529926111497220	     -4.61490498752974076524	      0.00000000000000000000	      0.00000000000000000000	    -26.65905287677292534454	      1.94278943161493211633	     -8.32032813835106921374	     27.72865226450393194568	     -2.67321920946611513159	     31.66559372721583187626	      4.56763906864183599765	     18.02976778999002505088	      0.00000000000000000000	      0.00000000000000000000	     33.61196342880639065243	    -10.78365957316843370961	     81.33529439857130682867	      7.39192446324602059349	     76.87332839126585781742	      0.00000000000000000000	      0.00000000000000000000
      8.56000000000000049738	      9.46217657074949158869	     -1.85040005158141473984	   -172.79655562776940769254	      0.25922340024331236297	      0.91170025744561300485	     -0.61874855096009440114	     27.92499533661397492779	    -13.76808602631471956101	    -15.84638250138405268785	     19.52536906700061791753	      0.34078197788621411579	     -1.62038121081983232941	      0.00000000000000000000	      0.00000000000000000000	     28.33049124946398933389	     -4.01394603394092985837	     -5.13214801236152506902	     15.87371798600578998162	      0.27704864338884421793	     -4.58826965538193576322	      0.00000000000000000000	      0.00000000000000000000	    -26.35426344469641080082	      1.49568992091453889515	     -8.03972205737324152608	     27.26920270837717907852	     -2.76333820514048289496	     31.49599680487547459506	      4.57945298363306463330	     18.45274369057026220275	      0.00000000000000000000	      0.00000000000000000000	     33.29489763148144731986	    -11.00262210901387582851	     81.70891946799444838234	      7.82408605558573988503	     77.02019608958411822641	      0.00000000000000000000	      0.00000000000000000000
      8.56499999999999950262	      9.26514997297755549255	     -1.87007392309052278279	   -172.97930352271401943653	      0.25805291888929171584	      0.91216212108671113068	     -0.61907857043970371258	     27.62524859796430121150	    -13.66358641676445273561	    -15.78926902632195883314	     19.42791600975620269764	      0.33908110117116452287	     -1.59508864635940472709	      0.00000000000000000000	      0.00000000000000000000	     27.97079103364328034331	     -4.11166593188637641276	     -5.29034762323804041984	     15.81169949103529681622	      0.27596621645447755311	     -4.45005494395595135870	      0.00000000000000000000	      0.00000000000000000000	    -25.95054812665392773852	      1.35723993617576033088	     -7.84222774501349029208	     26.68433761849189878035	     -2.95683383444098213388	     32.28843140069248107693	      4.94213374624712464822	     17.39141450802241806173	      0.00000000000000000000	      0.00000000000000000000	     33.00004145608473749007	    -10.96830215323967827601	     82.10085443171492158854	      7.77086055578954137957	     78.06340403382695569690	      0.00000000000000000000	      0.00000000000000000000
      8.57000000000000028422	      9.09970303918502487761	     -2.09196016260700767830	   -173.28581253237462078687	      0.25676829309248061506	      0.91260855239622651336	     -0.61956818413502934284	     27.41803592801863587169	    -13.70624948269157528102	    -15.45890481215763756495	     19.38716473817014929182	      0.33836985730761348634	     -1.48592666570917586455	      0.00000000000000000000	      0.00000000000000000000	     27.53427837211239648241	     -4.05648570689003307166	     -5.70849893593466806152	     15.64520935774321408473	      0.27306041545644649249	     -4.37850644232262453670	      0.00000000000000000000	      0.00000000000000000000	    -25.53637533229845857363	      0.97395269398610728739	     -7.75830761695813642120	     26.41173290154386066320	     -2.85648017613403570891	     32.11271224528586998304	      4.68278310530232211306	     18.41835272441094772944	      0.00000000000000000000	      0.00000000000000000000	     32.47644785365317687820	    -11.03006363164728931281	     81.63113304789044377685	      7.79624172514477553619	     77.08064208000691053257	      0.00000000000000000000	      0.00000000000000000000
      8.57499999999999928946	      8.92069360157289459323	     -2.22549740474825119563	   -173.51311566659498453191	      0.25555380969927676826	      0.91304592273579021633	     -0.61994715693694346648	     27.18022294988276854610	    -13.70626550513363817174	    -15.29017714775796221716	     19.33747143797272372012	      0.33750254560298648121	     -1.43354816170521148777	      0.00000000000000000000	      0.00000000000000000000	     27.13335899634037318151	     -4.04852956821327669701	     -5.94716210250255361558	     15.51731435902320477283	      0.27082822663194838775	     -4.26955836113201137039	      0.00000000000000000000	      0.00000000000000000000	    -25.13022353184651436209	      0.70952015195303552719	     -7.58651518326478324639	     25.90324940126914299299	     -2.97991206593383228807	     32.80910393873337227433	      4.76575598447921144896	     18.21664223043612551578	      0.00000000000000000000	      0.00000000000000000000	     32.10566745340230454531	    -11.04917741491652094510	     81.88324640576892932131	      7.79794113049285986250	     77.30642674997510255253	      0.00000000000000000000	      0.00000000000000000000
      8.58000000000000007105	      8.70246078583953774910	     -2.32634808291276229397	   -173.69729209442391493212	      0.25433400569131192626	      0.91357675683411188050	     -0.62019457406186406789	     26.86436015649189101850	    -13.68679552871269677894	    -15.17766490085340613803	     19.26074753690091867497	      0.33616346091430904242	     -1.37249143816056551337	      0.00000000000000000000	      0.00000000000000000000	     26.71349057597497633765	     -4.05065046884655721726	     -6.15330094809152683411	     15.42166035477384333774	      0.26915874931508038115	     -4.16895028378444454376	      0.00000000000000000000	      0.00000000000000000000	    -24.74827784143259989946	      0.52951157620578293006	     -7.52057367702765500184	     25.54613997775628675413	     -3.02278077435380954086	     33.31071619044296028278	      4.78671553733500054761	     17.84059005735190339692	      0.00000000000000000000	      0.00000000000000000000	     31.71706799924998065876	    -11.09451511066982831721	     81.77153192614674992456	      7.88260544833094112249	     77.63637025129300184290	      0.00000000000000000000	      0.00000000000000000000
      8.58500000000000085265	      8.47130381614072547336	     -2.36965300313766036311	   -173.85412251299308650232	      0.25308193904608616842	      0.91409330427267843078	     -0.62033513522101113580	     26.52446761685751397408	    -13.63541410211025173282	    -15.16291289770509820301	     19.18682563517777239781	      0.33487328033990448883	     -1.30055507011508431070	      0.00000000000000000000	      0.00000000000000000000	     26.28996158635997915098	     -4.09152102734640354953	     -6.29715458480698231369	     15.31786776237278502322	      0.26734722683850148384	     -4.04447963814834743346	      0.00000000000000000000	      0.00000000000000000000	    -24.37954227229200299121	      0.41386478296776962882	     -7.41322737951910148979	     25.21232830755786835653	     -3.07808137746746268704	     33.59954153369981355581	      4.74438344680287027444	     17.83894852411181020102	      0.00000000000000000000	      0.00000000000000000000	     31.27106714271679521744	    -10.95604410644318349455	     81.41596448934888030635	      7.67973935889398351406	     77.59411685049936124869	      0.00000000000000000000	      0.00000000000000000000
